<svg xmlns="http://www.w3.org/2000/svg" width="600" height="600" viewBox="0 0 600 600">
  <rect width="600" height="600" fill="#0a0a14"/>
  <g transform="translate(300,300)">
    <polygon points="0,-80 70,-40 70,40 0,80 -70,40 -70,-40" fill="#16213e" stroke="#89AACC" stroke-width="1" opacity="0.7"/>
    <polygon points="0,-80 70,-40 0,0 -70,-40" fill="#1a2744" stroke="#89AACC" stroke-width="0.5" opacity="0.5"/>
    <polygon points="70,-40 70,40 0,0" fill="#0f3460" stroke="#4E85BF" stroke-width="0.5" opacity="0.5"/>
  </g>
  <g transform="translate(180,220)">
    <polygon points="0,-60 50,-30 50,30 0,60 -50,30 -50,-30" fill="#16213e" stroke="#4E85BF" stroke-width="1" opacity="0.5"/>
    <polygon points="0,-60 50,-30 0,0 -50,-30" fill="#1a2744" stroke="#4E85BF" stroke-width="0.5" opacity="0.4"/>
  </g>
  <g transform="translate(420,380)">
    <polygon points="0,-50 40,-25 40,25 0,50 -40,25 -40,-25" fill="#16213e" stroke="#89AACC" stroke-width="1" opacity="0.4"/>
    <polygon points="0,-50 40,-25 0,0 -40,-25" fill="#1a2744" stroke="#89AACC" stroke-width="0.5" opacity="0.3"/>
  </g>
</svg>