<svg xmlns="http://www.w3.org/2000/svg" width="600" height="600" viewBox="0 0 600 600">
  <rect width="600" height="600" fill="#0a0a14"/>
  <path d="M0 350 Q75 300 150 350 T300 350 T450 350 T600 350" fill="none" stroke="#89AACC" stroke-width="2" opacity="0.6"/>
  <path d="M0 320 Q75 270 150 320 T300 320 T450 320 T600 320" fill="none" stroke="#4E85BF" stroke-width="1.5" opacity="0.5"/>
  <path d="M0 290 Q75 240 150 290 T300 290 T450 290 T600 290" fill="none" stroke="#89AACC" stroke-width="1" opacity="0.4"/>
  <path d="M0 380 Q75 330 150 380 T300 380 T450 380 T600 380" fill="none" stroke="#4E85BF" stroke-width="2.5" opacity="0.3"/>
  <path d="M0 260 Q75 210 150 260 T300 260 T450 260 T600 260" fill="none" stroke="#89AACC" stroke-width="0.8" opacity="0.3"/>
  <circle cx="300" cy="200" r="40" fill="none" stroke="#4E85BF" stroke-width="1" opacity="0.2"/>
  <circle cx="300" cy="200" r="20" fill="#4E85BF" opacity="0.1"/>
</svg>