<svg xmlns="http://www.w3.org/2000/svg" width="800" height="600" viewBox="0 0 800 600">
  <defs>
    <linearGradient id="sky" x1="0" y1="0" x2="0" y2="1">
      <stop offset="0%" stop-color="#0c1445"/>
      <stop offset="100%" stop-color="#1a1a2e"/>
    </linearGradient>
  </defs>
  <rect width="800" height="600" fill="url(#sky)"/>
  <rect x="100" y="100" width="120" height="500" fill="#16213e"/>
  <rect x="110" y="120" width="25" height="20" rx="2" fill="#89AACC" opacity="0.6"/>
  <rect x="145" y="120" width="25" height="20" rx="2" fill="#89AACC" opacity="0.3"/>
  <rect x="180" y="120" width="25" height="20" rx="2" fill="#89AACC" opacity="0.5"/>
  <rect x="110" y="160" width="25" height="20" rx="2" fill="#89AACC" opacity="0.4"/>
  <rect x="145" y="160" width="25" height="20" rx="2" fill="#89AACC" opacity="0.7"/>
  <rect x="180" y="160" width="25" height="20" rx="2" fill="#89AACC" opacity="0.2"/>
  <rect x="110" y="200" width="25" height="20" rx="2" fill="#89AACC" opacity="0.5"/>
  <rect x="145" y="200" width="25" height="20" rx="2" fill="#89AACC" opacity="0.3"/>
  <rect x="180" y="200" width="25" height="20" rx="2" fill="#89AACC" opacity="0.6"/>
  <rect x="280" y="180" width="160" height="420" fill="#1a2744"/>
  <rect x="500" y="60" width="180" height="540" fill="#16213e"/>
  <rect x="510" y="80" width="30" height="25" rx="2" fill="#89AACC" opacity="0.5"/>
  <rect x="550" y="80" width="30" height="25" rx="2" fill="#89AACC" opacity="0.3"/>
  <rect x="590" y="80" width="30" height="25" rx="2" fill="#89AACC" opacity="0.6"/>
  <rect x="640" y="80" width="30" height="25" rx="2" fill="#89AACC" opacity="0.2"/>
  <circle cx="750" cy="80" r="30" fill="#4E85BF" opacity="0.15"/>
  <text x="400" y="580" text-anchor="middle" font-family="monospace" font-size="11" fill="#89AACC" opacity="0.5">Destination Architecture</text>
</svg>