<svg xmlns="http://www.w3.org/2000/svg" width="800" height="600" viewBox="0 0 800 600">
  <rect width="800" height="600" fill="#1a1a2e"/>
  <rect x="60" y="40" width="680" height="40" rx="8" fill="#16213e"/>
  <circle cx="90" cy="60" r="12" fill="#0f3460"/>
  <rect x="560" y="48" width="60" height="24" rx="4" fill="#0f3460"/>
  <rect x="630" y="48" width="60" height="24" rx="4" fill="#0f3460"/>
  <rect x="120" y="120" width="300" height="200" rx="12" fill="#16213e"/>
  <rect x="140" y="140" width="260" height="20" rx="4" fill="#0f3460"/>
  <rect x="140" y="175" width="200" height="14" rx="3" fill="#1a1a3e"/>
  <rect x="140" y="200" width="230" height="14" rx="3" fill="#1a1a3e"/>
  <rect x="140" y="260" width="100" height="36" rx="6" fill="#89AACC"/>
  <rect x="460" y="120" width="280" height="200" rx="12" fill="#16213e"/>
  <rect x="480" y="140" width="240" height="160" rx="8" fill="#0f3460"/>
  <rect x="120" y="360" width="200" height="180" rx="12" fill="#16213e"/>
  <rect x="340" y="360" width="200" height="180" rx="12" fill="#16213e"/>
  <rect x="560" y="360" width="180" height="180" rx="12" fill="#16213e"/>
  <text x="400" y="580" text-anchor="middle" font-family="monospace" font-size="11" fill="#89AACC" opacity="0.5">AI Trip Planner Interface</text>
</svg>